<svg xmlns="http://www.w3.org/2000/svg" xmlns:xlink="http://www.w3.org/1999/xlink" width="100%" height="100%" viewBox="0 0 590 570" preserveAspectRatio="xMidYMid meet" ><rect id="svgEditorBackground" x="0" y="0" width="590" height="570" style="fill: none; stroke: none;"/><text fill="black" x="208" y="76" id="e42_texte" style="font-family: Arial; font-size: 20px;"/><text fill="black" x="54.8011" y="386.477" id="e554_texte" style="font-family: Arial; font-size: 20px;"/><circle id="e617_circle" cx="214.171" cy="285" stroke="#FDE4A4" style="stroke-width: 2px;" r="231.22" fill="white" transform="matrix(0.999903 -0.0139455 0.0139455 0.999903 66.0638 6.10343)"/><text fill="#FD9426" x="200.785" y="115.105" id="e716_texte" style="font-family: &quot;Comic Sans&quot;; font-size: 32px; text-decoration: underline;" transform="matrix(1 0 0 1 43.2461 -1.02967)" dy="" dx="">Events</text><text fill="black" x="128.709" y="147.024" id="e817_texte" style="font-family: Arial; font-size: 20px;" transform="matrix(1 0 0 1 19.5637 12.356)"></text><text fill="black" x="145.183" y="144.965" id="e859_texte" style="font-family: &quot;Comic Sans&quot;; font-size: 24px;" transform="matrix(1 0 0 1 -16.4747 43.2461)" dy="" dx="">We have great events on offer<tspan x="145.183" dy="1.25em">1. The Nook-Peer Counselling</tspan><tspan x="145.183" dy="1.25em">2. Doggy Destress</tspan><tspan x="145.183" dy="1.25em">3. Procrastination Workshops</tspan><tspan x="145.183" dy="1.25em">4. Sleep Workshop</tspan><tspan x="145.183" dy="1.25em">5. Treat Yo' Self</tspan><tspan x="145.183" dy="1.25em">6. Mindful Mondays</tspan><tspan x="145.183" dy="1.25em">7. Body Image Week</tspan><tspan x="145.183" dy="1.25em">8. Bystander Intervention Training</tspan></text><text fill="black" x="21.623" y="24.4939" id="e1014_texte" style="font-family: Arial; font-size: 20px;"></text><circle id="e1185_circle" cx="517.923" cy="116.134" stroke="#FDE4A4" style="stroke-width: 1px;" r="118.273" fill="white" transform="matrix(0.854094 -0.00161133 0.00161133 0.854094 45.7781 5.16584)"/><text fill="black" x="434.415" y="32.461" id="e1281_texte" style="font-family: &quot;Comic Sans&quot;; font-size: 26px;" transform="matrix(0.642783 0.00174414 -0.00174414 0.642783 153.633 9.4764)" dy="" dx="">"I am proud to <tspan x="434.416" dy="1.25em" id="e1281_tspan" y="">be a part of an </tspan><tspan x="434.416" dy="1.25em" id="e1282_tspan" y="">organisation that</tspan><tspan x="434.416" dy="1.25em" id="e1283_tspan" y="">has created an </tspan><tspan x="434.416" dy="1.25em" id="e1284_tspan" y="">atmosphere </tspan><tspan x="434.416" dy="1.25em" id="e1285_tspan" y="">where people can</tspan><tspan x="434.416" dy="1.25em" id="e1286_tspan" y="">feel vulnerable </tspan><tspan x="434.416" dy="1.25em" id="e1287_tspan" y="">and ask for help"</tspan></text></svg>