<svg xmlns="http://www.w3.org/2000/svg" xmlns:xlink="http://www.w3.org/1999/xlink" width="100%" height="100%" viewBox="0 0 590 570" preserveAspectRatio="xMidYMid meet"  ><rect id="svgEditorBackground" x="0" y="0" width="590" height="570" style="fill: none; stroke: none;"/><circle id="e1_circle" cx="213" cy="160" stroke="#FDE4A4" style="stroke-width: 2px;" r="145.055" fill="white" transform="matrix(1.17897 0 0 1.17897 -72.3703 -14.885)"/><text fill="black" x="208" y="76" id="e42_texte" style="font-family: Arial; font-size: 20px;"></text><text fill="#FD9426" x="79" y="80" id="e72_texte" style="font-family: &quot;Comic Sans&quot;; font-size: 36px;" transform="matrix(0.95808 -0.286499 0.286499 0.95808 -17.5662 64.7611)" dy="" dx="">MISSION</text><text fill="black" x="34.0258" y="134.04" id="e118_texte" style="font-family: &quot;Comic Sans&quot;; font-size: 20px;" transform="matrix(0.713443 -0.213344 0.282721 0.945447 -2.75902 54.5604)" dy="" dx="">By creating a safe space for<tspan x="35.367" dy="1.25em" y="">open dialogue and outreach, we seek to </tspan><tspan x="34.024" dy="1.25em" y="">cultibate a self-empowered student </tspan><tspan x="34.024" dy="1.25em" y="">community that is knowledgable and </tspan><tspan x="34.024" dy="1.25em" y="">supportive of personal and collective </tspan><tspan x="34.024" dy="1.25em" y="">wellbeing</tspan></text><text fill="black" x="54.8011" y="386.477" id="e554_texte" style="font-family: Arial; font-size: 20px;"></text><text fill="black" x="368.949" y="58.2955" id="e569_texte" style="font-family: Arial; font-size: 20px;" transform="matrix(0.899373 0.437183 -0.437183 0.899373 83.3206 -179.1)">"Joining REACH <tspan x="368.949" dy="1.25em">led to one of the most</tspan><tspan x="368.949" dy="1.25em">meaningful experiences</tspan><tspan x="368.949" dy="1.25em">I have had."</tspan></text><circle id="e630_circle" cx="34.2898" cy="341.136" stroke="#FDE4A4" style="stroke-width: 2px;" r="122.489" fill="white" transform="matrix(1 0 0 1 358.409 32.3864)"/><text fill="#FD9426" x="398.097" y="275.284" id="e698_texte" style="font-family: &quot;Comic Sans&quot;; font-size: 32px;" transform="matrix(0.900003 0.37462 -0.37462 0.900003 139.561 -107.357)" dy="" dx="">tip #1</text><text fill="black" x="319.29" y="302.273" id="e730_texte" style="font-family: Arial; font-size: 20px;" transform="matrix(0.818382 0.574674 -0.574674 0.818382 259.087 -136.825)">Get motivated by<tspan x="319.29" dy="1.25em">what you love to do</tspan><tspan x="319.29" dy="1.25em">rather than the </tspan><tspan x="319.29" dy="1.25em">frustration over that</tspan><tspan x="319.29" dy="1.25em">which lacks.</tspan></text></svg>