<svg xmlns="http://www.w3.org/2000/svg" xmlns:xlink="http://www.w3.org/1999/xlink" width="100%" height="100%" viewBox="0 0 590 570" preserveAspectRatio="xMidYMid meet" ><rect id="svgEditorBackground" x="0" y="0" width="590" height="570" style="fill: none; stroke: none;"/><circle id="e1_circle" cx="213" cy="160" stroke="#FDE4A4" style="stroke-width: 2px;" r="145.055" fill="white" transform="matrix(1.15879 0.217204 -0.217204 1.15879 -29.5065 -59.8269)"/><text fill="black" x="208" y="76" id="e42_texte" style="font-family: Arial; font-size: 20px;"/><text fill="#FD9426" x="79" y="80" id="e72_texte" style="font-family: &quot;Comic Sans&quot;; font-size: 36px;" transform="matrix(0.999983 -0.00572174 0.00572174 0.999983 25.7071 -1.07738)" dy="" dx="">MISSION</text><text fill="black" x="34.0258" y="134.04" id="e118_texte" style="font-family: &quot;Comic Sans&quot;; font-size: 20px;" transform="matrix(0.744659 -0.000223322 0.000295761 0.986814 44.7478 5.23361)" dy="" dx="">By creating a safe space for<tspan x="35.7928" dy="1.25em" y="">open dialogue and outreach, we seek to </tspan><tspan x="34.024" dy="1.25em" y="">cultibate a self-empowered student </tspan><tspan x="34.024" dy="1.25em" y="">community that is knowledgable and </tspan><tspan x="33.9885" dy="1.25em" y="">supportive of personal and collective </tspan><tspan x="34.024" dy="1.25em" y="">wellbeing</tspan></text><text fill="black" x="54.8011" y="386.477" id="e554_texte" style="font-family: Arial; font-size: 20px;"/><text fill="black" x="368.949" y="58.2955" id="e569_texte" style="font-family: Arial; font-size: 20px;" transform="matrix(0.999997 -0.00264583 0.00264583 0.999997 -3.51571 20.6738)">"Joining REACH <tspan x="368.949" dy="1.25em">led to one of the most</tspan><tspan x="368.949" dy="1.25em">meaningful experiences</tspan><tspan x="368.949" dy="1.25em">I have had."</tspan></text><circle id="e630_circle" cx="34.2898" cy="341.136" stroke="#FDE4A4" style="stroke-width: 2px;" r="122.489" fill="white" transform="matrix(1 0 0 1 358.409 32.3864)"/><text fill="#FD9426" x="398.097" y="275.284" id="e698_texte" style="font-family: &quot;Comic Sans&quot;; font-size: 32px;" transform="matrix(0.974017 0.0449203 -0.0449203 0.974017 -17.1103 10.7473)" dy="" dx="">tip #1</text><text fill="black" x="319.29" y="302.273" id="e730_texte" style="font-family: Arial; font-size: 20px;" transform="matrix(0.999785 0.0207333 -0.0207333 0.999785 -5.76472 25.1156)">Get motivated by<tspan x="319.29" dy="1.25em">what you love to do</tspan><tspan x="319.29" dy="1.25em">rather than the </tspan><tspan x="319.29" dy="1.25em">frustration over that</tspan><tspan x="319.29" dy="1.25em">which lacks.</tspan></text></svg>