<?xml version="1.0" encoding="utf-8"?><svg xmlns="http://www.w3.org/2000/svg" xmlns:xlink="http://www.w3.org/1999/xlink" version="1.1" class="page" pageAlignment="none" x="0px" y="0px" width="842px" height="595px" viewBox="0 0 842 595" enable-background="new 0 0 842 595" xml:space="preserve"><defs/><style type="text/css"/><style type="text/css"/><g type="LAYER" name="workspace" id="workspace" locked="true"/><g type="LAYER" name="Layer 01" id="Layer 01"><path transform="matrix(1 0 0 1 222.48926654740646 192.656529516994)" width="196.91413237924854" height="204.36493738819385" stroke-width="0.5228737040913278" stroke-miterlimit="3" stroke="#000000" fill="#FFFFFF" d="M-3.410605131648481e-13,102.18246869409688 C-3.410605131648481e-13,45.74864440787121 44.08072508050071,-2.842170943040401e-14 98.45706618962396,-2.842170943040401e-14 C152.83340729874732,-2.842170943040401e-14 196.9141323792482,45.74864440787121 196.9141323792482,102.18246869409688 C196.9141323792482,158.61629298032227 152.83340729874732,204.36493738819382 98.45706618962396,204.36493738819382 C44.08072508050071,204.36493738819382 -3.410605131648481e-13,158.61629298032227 -3.410605131648481e-13,102.18246869409688 Z "/><text type="textBox" transform="matrix(0.9252227289413795 0.37942443496731504 -0.379424434967315 0.9252227289413796 266.4576298377459 234.76874170552952)" width="144.6761954946768" height="80" stroke-miterlimit="3" stroke="none" fill="#000000" font-family="Arial" font-size="14" text-align="left" text-anchor="start"><tspan x="0" y="14"><![CDATA[Self-Care Tip:]]></tspan><tspan x="0" y="30"><![CDATA[Stop Over-Thinking.]]></tspan><tspan x="0" y="46"><![CDATA[You don't need to have]]></tspan><tspan x="0" y="62"><![CDATA[all the answers to all of]]></tspan><tspan x="0" y="78"><![CDATA[life's riddles.]]></tspan></text></g></svg>